<svg xmlns="http://www.w3.org/2000/svg" width="50" height="50" viewBox="0 0 50 50">
  <defs>
    <style>
      .cls-1 {
        fill: #231f20;
        fill-rule: evenodd;
      }
    </style>
  </defs>
  <g id="Layer_1" data-name="Layer 1">
    <path id="_Compound_Path_" data-name="&lt;Compound Path&gt;" class="cls-1" d="M44.081,18.993V19.74a0.6,0.6,0,0,0-.053.134,5.356,5.356,0,0,1-2.963,4.211,0.467,0.467,0,0,0-.275.495q0.009,7.932,0,15.864a1.031,1.031,0,0,1-1.217,1.217H10.349a1.026,1.026,0,0,1-1.218-1.213q0-7.932,0-15.864a0.494,0.494,0,0,0-.3-0.518,5.38,5.38,0,0,1-2.9-3.895,2.549,2.549,0,0,1,.282-1.892c1.787-3.072,3.535-6.168,5.274-9.268a1.309,1.309,0,0,1,1.291-.746c1.754,0.02,3.509.007,5.263,0.007q9.518,0,19.037-.009a1.4,1.4,0,0,1,1.372.8C40.318,12.384,42.2,15.686,44.081,18.993ZM11.024,39.753h3.3v-0.52c0-3.111-.006-6.221,0-9.332a3.233,3.233,0,0,1,3.465-3.443c0.784,0,1.57-.04,2.351.014a4.263,4.263,0,0,1,1.509.333,3.1,3.1,0,0,1,1.82,3.009c0.008,3.173,0,6.346,0,9.519v0.416H38.9V24.7a5.576,5.576,0,0,1-4.852-2.407,5.5,5.5,0,0,1-9.064.024A5.561,5.561,0,0,1,15.87,22.3,5.563,5.563,0,0,1,11.024,24.7V39.753ZM8.608,17.944H41.32c-0.038-.08-0.056-0.125-0.079-0.166q-2.1-3.7-4.193-7.394a0.459,0.459,0,0,0-.5-0.219q-11.589,0-23.178-.006a0.544,0.544,0,0,0-.551.322q-2.011,3.574-4.044,7.136C8.724,17.712,8.677,17.81,8.608,17.944ZM21.587,39.762c0.008-.094.016-0.142,0.016-0.191q0-4.923,0-9.846a1.325,1.325,0,0,0-1.38-1.393c-0.808-.012-1.616,0-2.424,0a1.37,1.37,0,0,0-1.583,1.563q0,4.737,0,9.473v0.4h5.374ZM14.856,19.876H7.814A3.58,3.58,0,0,0,14.856,19.876Zm2.049-.015a3.586,3.586,0,0,0,4.009,2.915,3.4,3.4,0,0,0,2.974-2.915H16.9Zm9.127,0a3.532,3.532,0,0,0,6.965,0H26.031Zm9.062,0.007a3.535,3.535,0,0,0,3.729,2.93,3.494,3.494,0,0,0,3.262-2.93H35.093Z"/>
    <path id="_Compound_Path_2" data-name="&lt;Compound Path&gt;" class="cls-1" d="M30.392,35.59c-0.809,0-1.617.007-2.426,0a2.567,2.567,0,0,1-2.72-2.709q-0.017-1.866,0-3.732a2.567,2.567,0,0,1,2.706-2.688q2.463-.01,4.927,0a2.568,2.568,0,0,1,2.7,2.694q0.017,1.866,0,3.732a2.561,2.561,0,0,1-2.688,2.7C32.059,35.6,31.225,35.59,30.392,35.59Zm0.023-1.876c0.82,0,1.641,0,2.461,0a0.72,0.72,0,0,0,.832-0.815q0.009-1.864,0-3.729a0.735,0.735,0,0,0-.852-0.838q-2.442-.007-4.885,0a0.735,0.735,0,0,0-.85.84q-0.008,1.846,0,3.691a0.734,0.734,0,0,0,.87.851C28.8,33.717,29.607,33.714,30.415,33.714Z"/>
  </g>
</svg>
